<?xml version="1.0" standalone="no"?>
<!DOCTYPE svg PUBLIC "-//W3C//DTD SVG 20010904//EN"
 "http://www.w3.org/TR/2001/REC-SVG-20010904/DTD/svg10.dtd">
<svg version="1.0" xmlns="http://www.w3.org/2000/svg"
 width="500.000000pt" height="500.000000pt" viewBox="0 0 500.000000 500.000000"
 preserveAspectRatio="xMidYMid meet">
<metadata>
Created by potrace 1.11, written by Peter Selinger 2001-2013
</metadata>
<g transform="translate(0.000000,500.000000) scale(0.100000,-0.100000)"
fill="#000000" stroke="none">
<path d="M2220 4984 c-52 -7 -111 -15 -130 -19 -19 -3 -62 -10 -95 -16 -33 -5
-74 -14 -91 -20 -17 -5 -40 -11 -50 -13 -10 -2 -64 -19 -119 -36 -590 -190
-1096 -600 -1407 -1141 -149 -257 -247 -535 -300 -849 -38 -228 -31 -636 17
-864 52 -253 123 -456 234 -671 124 -240 259 -424 455 -621 271 -271 548 -448
911 -582 180 -67 320 -100 600 -141 59 -9 462 -7 500 2 11 3 51 8 90 12 38 4
72 8 75 10 3 2 26 6 50 10 105 15 337 81 445 125 260 107 455 220 654 380 353
281 627 660 786 1084 41 110 110 370 120 456 4 30 9 58 11 61 20 34 24 495 5
634 -7 50 -14 99 -15 110 -16 122 -90 403 -126 480 -5 11 -19 45 -30 75 -34
95 -146 305 -225 425 -193 293 -435 531 -740 730 -244 159 -623 312 -867 349
-21 3 -55 9 -75 12 -21 3 -67 10 -103 16 -97 16 -468 17 -580 2z m505 -188
c469 -56 830 -202 1197 -483 90 -69 298 -270 350 -338 12 -16 31 -39 41 -50
30 -32 181 -264 219 -335 68 -128 160 -354 184 -450 2 -8 11 -44 19 -80 19
-73 23 -94 30 -130 54 -302 53 -590 0 -865 -20 -100 -21 -106 -45 -189 -131
-468 -404 -873 -808 -1198 -120 -96 -344 -228 -507 -298 -294 -126 -582 -184
-905 -184 -181 0 -299 12 -492 49 -78 15 -284 81 -391 125 -370 152 -683 393
-955 736 -53 66 -156 231 -212 336 -90 172 -188 454 -215 618 -3 19 -8 42 -10
50 -2 8 -7 41 -10 73 -4 32 -9 68 -11 80 -3 12 -6 105 -8 207 -4 232 5 328 50
527 98 438 303 810 622 1131 53 54 120 115 147 137 28 22 52 42 55 45 3 3 38
30 78 59 164 117 366 225 556 296 97 36 285 88 356 99 19 3 44 8 56 10 27 6
113 17 189 25 76 8 341 6 420 -3z"/>
<path d="M2845 3948 c-121 -149 -231 -284 -245 -301 -14 -17 -51 -62 -83 -101
-32 -39 -66 -80 -75 -91 -10 -11 -55 -68 -102 -125 -46 -58 -87 -107 -90 -110
-3 -3 -34 -41 -70 -85 -36 -44 -73 -89 -82 -100 -9 -11 -82 -101 -163 -200
-81 -99 -162 -198 -180 -220 -18 -22 -66 -80 -106 -130 -40 -49 -76 -92 -79
-95 -9 -8 -206 -254 -212 -265 -4 -7 150 -10 460 -10 257 1 472 0 478 -2 9 -3
-22 -126 -96 -373 -65 -220 -271 -952 -268 -954 1 -2 120 141 263 316 143 176
265 325 270 331 6 7 53 64 105 128 304 372 495 605 499 609 4 3 53 64 111 135
57 72 138 171 180 221 41 49 91 110 110 134 19 24 68 83 108 131 39 48 72 89
72 91 0 2 -214 3 -475 3 -381 0 -475 2 -475 13 0 7 84 305 186 663 102 358
184 652 182 653 -1 2 -102 -118 -223 -266z"/>
</g>
</svg>
